<svg width="500" height="500" viewBox="0 0 500 500" fill="none" xmlns="http://www.w3.org/2000/svg">
<path fill-rule="evenodd" clip-rule="evenodd" d="M484 17C322.03 48.4045 253.307 78.7292 185 164H114L16 259H90L122 293C70.0282 323.266 54.3729 360.239 44 454C145.692 446.826 175.744 426.607 205 377L237 408V484L337 384V314C437.351 221.652 453.238 151.924 478.992 38.8939C480.614 31.7733 482.276 24.4808 484 17ZM336.5 210C362.181 210 383 189.181 383 163.5C383 137.819 362.181 117 336.5 117C310.819 117 290 137.819 290 163.5C290 189.181 310.819 210 336.5 210Z" fill="white"/>
</svg>
