<svg version="1" xmlns="http://www.w3.org/2000/svg" width="933.333" height="933.333" viewBox="0 0 700 700">
    <path d="M649.5 29.4c-20.5 4.3-34.3 7.3-51.5 11.1-15.4 3.4-56.2 13.9-74 19-65.7 19-116 41.2-160 70.8-9.1 6.1-29.4 21.1-32.6 24.2-.6.5-4 3.5-7.5 6.4-7.8 6.7-36.4 35.2-44.1 44.1-3.1 3.6-8.7 10.1-12.3 14.5-3.7 4.4-7.1 8.4-7.7 9-.6.6-18.8 1-50.6 1l-49.7.1-16 15.6c-8.8 8.5-19.1 18.6-23 22.3-3.8 3.7-18.7 18-32.9 31.9-14.3 13.8-28.7 27.8-32.1 31.1C42.8 342.8 23 362.2 23 362.4c0 .1 23.1.1 51.3.1l51.2-.1 5 5.1c5.9 6.1 29.3 30.9 35.7 37.9l4.5 5-6.6 4c-25 15.1-46.3 35.4-59.8 57.1-10.5 16.8-21.4 43.8-25.9 63.7-.2 1-.6 2.6-.8 3.6C76.2 544 72 563 71.5 566c-.3 1.9-.8 4.2-1 5-.2.8-.7 3.5-1 6-.2 2.5-.7 5.4-.9 6.5-.5 2.8-1.5 9.1-2.1 14.5-.3 2.5-.8 5.6-1 7-.2 1.4-.7 5-1 8-.4 3-1 8.4-1.5 12-1.3 8.9-1.2 11 .2 10.5.7-.2 5.1-.6 9.8-.9 9.5-.6 36.1-3.3 40-4.1 1.4-.2 4.5-.7 7-1 37-4.8 71.2-14.5 93.9-26.6 8.3-4.4 20.7-12.2 22.1-13.8.3-.3 2.8-2.4 5.5-4.6 13.3-10.6 27.4-27.8 42.9-52.3 1.5-2.4 3.1-4.1 3.4-3.7.4.4 10.4 10.1 22.4 21.7l21.6 20.9v52.5c0 28.9.1 52.7.4 52.9.2.2 31.7-30.9 70-69.3l69.6-69.7V439.8l19.4-19.1c27.5-27.2 40.1-41 58-63.7 42.2-53.5 68.6-106 91-180.5 1.6-5.5 3.1-10.7 3.3-11.6.2-.9 1.2-4.7 2.3-8.5 3.9-13.1 15.2-59.2 19.7-80.1.3-1.1 2.7-11.7 5.4-23.5 6.5-28.1 6.6-28.8 5-28.7-.8.1-12.6 2.5-26.4 5.3zM486.7 165.9c22.1 5.7 38.3 20.6 46.1 42.3 2.3 6.4 2.6 8.8 2.7 20.3 0 11.2-.3 14-2.4 20-5.4 15.5-14.9 27.7-27.6 35.4-37.1 22.5-83.7 4.9-96.7-36.4-2.6-8.2-3.1-26.9-.9-34.5 5.5-19.4 19.7-36.2 36.6-43.5 12.6-5.4 29.5-6.8 42.2-3.6z"/>
</svg>
